<?xml version="1.0" standalone="no"?>
<!DOCTYPE svg PUBLIC "-//W3C//DTD SVG 20010904//EN"
 "http://www.w3.org/TR/2001/REC-SVG-20010904/DTD/svg10.dtd">
<svg version="1.0" xmlns="http://www.w3.org/2000/svg"
    width="900.000000pt" height="900.000000pt" viewBox="0 0 900.000000 900.000000"
    preserveAspectRatio="xMidYMid meet">

    <g transform="translate(0.000000,900.000000) scale(0.100000,-0.100000)"
    fill="#000000" stroke="none">
    <path d="M4657 8986 c-4 -9 -26 -16 -59 -19 -29 -3 -78 -11 -108 -17 -30 -6
    -73 -13 -95 -17 -22 -3 -44 -9 -49 -14 -6 -5 -19 -9 -31 -9 -58 0 -290 -107
    -410 -189 -94 -64 -263 -231 -320 -316 -22 -33 -43 -61 -47 -63 -5 -2 -8 -10
    -8 -18 0 -8 -3 -14 -8 -14 -4 0 -13 -15 -21 -32 -8 -18 -20 -40 -27 -48 -6 -8
    -26 -44 -44 -80 -17 -36 -35 -73 -41 -82 -5 -10 -9 -25 -9 -33 0 -8 -4 -15
    -10 -15 -5 0 -10 -11 -10 -24 0 -14 -4 -28 -10 -31 -5 -3 -10 -16 -10 -29 0
    -12 -4 -26 -9 -31 -8 -9 -28 -78 -55 -190 -7 -27 -15 -57 -19 -65 -3 -8 -8
    -40 -12 -70 -3 -30 -10 -100 -17 -155 -26 -232 0 -837 40 -911 6 -12 9 -24 6
    -27 -3 -3 1 -27 9 -54 8 -26 20 -68 27 -93 7 -25 16 -55 21 -67 5 -13 13 -33
    18 -45 32 -81 86 -180 157 -291 24 -37 44 -72 44 -77 0 -6 5 -10 10 -10 6 0
    10 -5 10 -11 0 -6 19 -39 43 -73 23 -33 48 -73 56 -89 8 -15 18 -27 23 -27 4
    0 8 -6 8 -13 0 -8 9 -22 20 -32 11 -10 20 -22 20 -26 0 -9 104 -153 250 -345
    58 -75 134 -176 170 -223 116 -153 142 -186 149 -191 4 -3 18 -21 31 -40 13
    -19 27 -37 30 -40 3 -3 38 -49 78 -102 40 -53 78 -103 85 -110 7 -7 34 -42 59
    -78 26 -36 56 -75 67 -87 12 -12 21 -26 21 -32 0 -5 3 -11 8 -13 4 -1 25 -28
    47 -58 22 -30 42 -57 45 -60 10 -8 240 -348 240 -354 0 -3 20 -36 44 -73 69
    -108 202 -365 248 -483 6 -14 14 -33 19 -42 5 -10 9 -26 9 -36 0 -10 4 -22 9
    -27 4 -6 16 -35 26 -65 10 -30 21 -64 26 -75 8 -20 15 -57 25 -125 3 -19 9
    -44 14 -55 10 -23 23 -172 22 -255 -1 -98 -15 -250 -23 -256 -5 -3 -9 -23 -9
    -44 0 -21 -4 -42 -10 -45 -5 -3 -10 -17 -10 -31 0 -13 -4 -32 -9 -42 -5 -9
    -19 -42 -31 -72 -44 -108 -125 -260 -147 -273 -14 -9 -18 -27 -5 -27 34 0 239
    245 314 375 50 88 129 262 147 325 7 25 17 53 22 62 5 10 9 30 9 46 0 15 4 32
    9 37 10 11 17 64 30 239 12 149 -8 478 -30 501 -5 5 -9 26 -9 46 0 21 -4 41
    -10 44 -5 3 -10 35 -10 71 0 72 -12 55 161 238 41 45 144 155 229 246 84 91
    212 228 284 305 72 77 156 167 186 200 220 240 327 345 351 345 19 0 19 -30
    19 -1450 0 -819 -4 -1458 -9 -1468 -5 -9 -15 -30 -22 -47 -26 -55 -77 -93
    -186 -136 -15 -5 -21 -14 -17 -24 5 -13 118 -15 1016 -15 l1009 0 -3 28 c-3
    23 -10 29 -49 38 -104 26 -169 75 -185 137 -10 42 -11 4839 0 4897 7 45 14 65
    39 117 14 32 94 92 121 93 11 0 34 5 52 12 27 9 31 16 30 42 l-2 31 -849 3
    -850 3 -659 -663 c-362 -365 -850 -855 -1083 -1090 -243 -245 -432 -428 -442
    -428 -19 0 -80 62 -143 146 -21 27 -84 108 -140 180 -57 73 -130 167 -163 210
    -33 43 -93 121 -134 173 -149 195 -269 358 -327 446 -32 50 -61 92 -64 95 -5
    5 -11 15 -76 135 -79 145 -124 237 -124 251 0 8 -4 14 -10 14 -5 0 -10 9 -10
    20 0 11 -4 28 -10 38 -13 24 -55 155 -70 222 -7 30 -16 64 -21 75 -16 41 -22
    147 -22 400 0 236 5 309 31 445 8 44 46 175 62 215 4 11 14 36 21 55 56 157
    208 392 304 471 11 10 34 29 50 44 17 14 44 33 60 42 17 9 32 19 35 22 3 3 19
    12 35 20 17 7 38 17 47 22 10 5 27 9 37 9 11 0 22 4 25 9 19 29 323 30 342 0
    3 -5 14 -9 25 -9 10 0 27 -4 37 -9 9 -5 31 -15 47 -22 17 -8 84 -50 150 -94
    66 -45 134 -87 150 -94 17 -7 39 -18 49 -23 32 -17 140 -22 179 -9 21 7 47 27
    59 44 32 45 31 138 -3 204 -26 53 -119 151 -159 169 -14 6 -38 17 -55 24 -16
    7 -38 16 -47 21 -10 5 -31 9 -47 9 -17 0 -33 5 -36 10 -3 6 -24 10 -46 10 -26
    0 -42 5 -45 15 -8 21 -159 22 -167 1z"/>
    <path d="M2652 7733 c-45 -22 -168 -129 -228 -199 -62 -72 -126 -170 -185
    -281 l-43 -83 -955 -2 -956 -3 -3 -38 c-4 -48 8 -63 58 -70 64 -8 112 -39 145
    -92 l30 -48 0 -2462 c0 -2061 -2 -2467 -14 -2491 -31 -67 -40 -80 -71 -101
    -17 -12 -53 -25 -78 -29 -61 -9 -72 -18 -72 -65 l0 -39 1120 0 1120 0 0 48 0
    48 -81 12 c-96 14 -138 35 -161 82 -17 33 -18 134 -18 1678 0 1394 2 1642 14
    1642 12 0 46 -51 213 -320 67 -108 210 -327 265 -406 24 -33 80 -114 126 -180
    46 -65 129 -184 187 -264 57 -80 138 -194 180 -255 42 -60 100 -143 128 -182
    437 -611 675 -966 805 -1203 139 -254 233 -473 270 -630 6 -25 14 -56 17 -70
    29 -115 44 -444 25 -555 -44 -262 -168 -531 -348 -752 -34 -43 -35 -63 -2 -63
    38 0 276 278 403 470 112 171 242 456 278 610 60 263 72 376 66 627 -5 194
    -16 290 -47 406 -5 20 -14 52 -19 70 -22 80 -48 142 -115 272 -174 335 -138
    281 -1002 1496 -336 473 -397 561 -522 749 -290 435 -516 846 -587 1065 -9 28
    -20 59 -24 70 -20 49 -47 160 -83 335 -9 43 -13 143 -12 300 0 232 3 266 44
    450 6 25 13 60 16 78 4 18 11 35 15 38 5 3 9 14 9 25 0 10 4 27 9 37 5 9 24
    50 42 91 19 41 49 99 67 129 17 30 32 56 32 57 0 12 -32 10 -58 -2z"/>
    </g>
</svg>
